<svg xmlns="http://www.w3.org/2000/svg" xmlns:xlink="http://www.w3.org/1999/xlink" viewBox="0 0 1400 446">

  <g id="front" class="interact">
    <path d="M888,194c16.79,2.95,49.79,50,39,76-9.26,18.31-48.79,22.43-68,31-48.45,21.62-105.14,35.09-165,47l-44,2-62,5-5-4c3.38-10.19,9.66-9.79,16-18,8.38-10.84,10.27-12.07,18-24,7-5.34,11-12.66,17-19,8.68-9.14,18.75-18.62,34-25,66.3-27.75,163.69-20.05,221-62C888.67,201.33,888.33,195.67,888,194Z" fill-rule="evenodd"/>
  </g>

  <g id="back" class="interact">
    <path d="M40,152c22.3.49,46.16,9.13,66,16,12.59,4.36,31.22,6.47,42,11,33.92,14.24,71.68,26,98,50,9.33,10.67,21.38,20.48,29,32,12,12.07,26.24,28,37,38-.33,1-.67,2-1,3-21.44,5.19-47.32-9.35-71-10-69-1.88-169,19.17-204-27V246c45.38,5.78,86.57,49.06,114-5-17.75-30-79.32-24.28-110-42C37,184.13,39.63,168.63,40,152Z" fill-rule="evenodd"/>
  </g>

  <g id="middle1" class="interact">
    <path d="M398,58c0,3.33-8,7.67-8,11-26.53,4.89-40.09,8.16-55,20,.67,1.33,1.33.67,2,2,11.33,4,19.67,5,31,9,3.67-3,5.33-3,9-6,12.87-12.7,34.69-2.06,43-12-1.72-6.66-7.41-2.25-9-8l11-11,16,6c2.64,6.08,6.47,20.53,12,24,7.21,2.31,12.07-3.86,17-7,28.07,4.42,21.65,25.72,35,35l4,2c5.09-3.61,11.3-11.55,20-8,15.93,6.76,22.88,20.23,31,35l22-9c18.5,11.22,23,21.77,35,39h4c11.83-14.22,35.26-15,47,1,4.19,5.72,1,11.92,7,16,2,1.6,1.39,1.3,5,2l20-11c4.67,2.67,10.33,4.33,15,7-.57,4.82-1.65,9.14-5,19-32.33,18.8-117.71,24.8-123,66,10,9.57,25.53,16,45,16-1.33,2.67-5.67,8.33-7,11-26.34,18.69-25.22,47.72-48,45-18.47-2.21-81.49-12-100-16-42.1-9.05-83.54-14.86-122-24-16-3-13-3-29-6-.33-.33-1.67,1.33-2,1-2.67-6.67-23.33-18.33-26-25-11.81-14.42-23.2-18.39-32-36,24.78,12.51,44.91,15.28,77,21,91.55,16.31,143.13,10.77,206-28,17.28-10.65,31-20.59,44-35-.33-2.67-.67-5.33-1-8-9.06-16.94-46.61-23.05-65-31L422,120c-28.4-7.13-32.25,11.82-52,16-25.31,5.36-68-13.15-92-16,2.79-9.84,13.62-15.57,20-22C325.55,70.24,357.94,46.64,398,58Z" fill-rule="evenodd"/>
  </g>

  <g id="middle2" class="interact">
    <path d="M402,120c40.83-1,64.06,21.6,94,33,12,3.33,23,8.67,35,12,2.59,1.88,7.45,4.22,11,6,18.44,9.22,34.74,11.12,48,25,.21,6-.31,10.57-2,14-8.74,3-13,10.45-20,15-30.16,19.72-64.37,38.29-102,49H430l-40,2c-37.32-6.88-90.39-13.94-124-28l-42-37v-1C309.83,211.61,344,145.7,402,120Z" fill-rule="evenodd"/>
    <path d="M712,195c48.84.14,128.88,11.49,176,1v2c.33,1.67.67,3.33,1,5-9.51,13.09-30.18,16.12-47,22-50.86,17.77-102.72,15.3-152,33l-42,18c-6.84,4.72-9.12,15.35-18,18-16.72,5-41-6.44-46-15,7.69-41.51,74.62-44.72,111-59C706.76,215.38,712.94,205.07,712,195Z" fill-rule="evenodd"/>
    <path d="M124,106c-8.68-.23-8.73-6.7-43,11-10.49,14.75-9.68,17.56-9,24,2.81,7.6,13.72,18.07,10,19-14.49.41-32.44-3.51-39-10,12.66-41.74,13.62-59.72,50-74,11.76-4.62,14.72,1.79,23,8C118.59,95,127.56,106.09,124,106Z" fill-rule="evenodd"/>
  </g>

  <g id="shadow" data-name="shadow">
    <image id="shadow" data-name="shadow" width="952" height="446" xlink:href="shoe_21.png"/>
  </g>
</svg>
