<svg xmlns="http://www.w3.org/2000/svg" xmlns:xlink="http://www.w3.org/1999/xlink" viewBox="0 0 680 228">

  <g id="side1" class="interact">
    <path d="M294.75,124.5c18.74,3.47,32.81,16,49.5,21.75L339.75,168c-21.52,1-39.08,4.52-62.25,3.75V168C282.23,150.58,285.84,137.92,294.75,124.5Z" fill-rule="evenodd"/>
    <path d="M105,98.25c6.78.56,8.14,4,14.25,5.25s14.39-.06,18.75.75l18-.75c5.75.5,11.5.25,17.25.75,9.27-.78,27.22-.83,41.25,2.25v.75c-7,1.51-35,25.9-37.5,31.5-14.95-3.79-34.32-3.06-58.5-8.25-25.26,1.8-62.81.41-75.75-6.75L41.25,120l2.25-1.5C57,109.2,89.47,107.43,105,98.25Z" fill-rule="evenodd"/>
  </g>

  <g id="side2" class="interact">
    <path d="M451.5,67.5c2,.25,8.5-1,10.5-.75,4,3,6.5,6.67,7.5,12.75C455.6,85,440.81,91,423,93.75v-1.5l-.75-6.75c-6.71-2.23-19.66.12-25.5,3.75-.17,4,.67,6.94-1.5,11.25C376,110.05,301.45,109.67,294,126c-10.66,12.16-12.31,31.94-17.25,45.75-18.5,1.25-37,3.25-55.5,4.5C218.67,172.9,201,153.61,198,151.5c-7-4.85-11.69-6-20.25-13.5,4-8.39,11.15-11.36,18-17.25,22.81-21.26,54.52-25.65,85.5-26.25,20.53-2.82,34.05-.93,54-3,26.18-3.82,50.65-6.42,73.5-12C425.55,75.4,435.79,74.49,451.5,67.5Z" fill-rule="evenodd"/>
  </g>

  <g id="side3" class="interact">
    <path d="M366,106.5l5.25.75h-1.5L354,118.5c-5.95,7.83-6.07,17.82-10.5,27.75-14.89-7.07-30.83-16.54-48-21C307.74,108.23,345.46,115.12,366,106.5Z" fill-rule="evenodd"/>
    <path d="M306,32.25h7.5c9.94,11.93,35.24,31.52,52.5,34.5h38.25c3.75-.87,6.49-5.22,12-4.5,4.75,2.07,7.15,5,13.5,6,6.5.25,14.5.28,21-.75-.5,0-1.75.75-2.25.75A84.27,84.27,0,0,1,420,76.5c-10.08,2.93-21.35,3.61-30.75,7.5l-54,7.5-64.5,3c-20.5-.2-46.81,8.34-54.75,12.75-21.54-6.65-61.66,0-75.75-3.75.75,0,3.75-.75,4.5-.75,3.85-.76,31.16-11.09,37.5-12,4.25.25,12.25,1.25,16.5,1.5C206,89,215.5,85,222.75,81.75c8,1,14.5,2,22.5,3l42-20.25c.7-11.13,1-19.14,3-25.5Z" fill-rule="evenodd"/>
  </g>

  <g id="side4" class="interact">
    <path d="M281.25,42c2,0,6.25-2.25,8.25-2.25,0,1-.75,3.5-.75,4.5-.48,6.12-.77,17.14-2.25,21.75-14.82,5-29.58,15.44-42.75,18.75l-21-3L198,92.25,180,90l.75-1.5C206,78.29,235.15,65.08,258,52.5,265.85,48.18,274.53,47.17,281.25,42Z" fill-rule="evenodd"/>
    <path d="M459,24.75l5.25,3,9,50.25h-3c-3.41-4.1-4.57-8.75-9.75-11.25-13.38.64-33.26,6.52-43.5-5.25C450.23,53.7,438.46,37.86,459,24.75Z" fill-rule="evenodd"/>
  </g>

  <g id="shadow" data-name="shadow">
    <image id="shadow" data-name="shadow" width="640" height="304" transform="scale(0.75)" xlink:href="shoe_11.png"/>
  </g>
</svg>
